<?xml version="1.0" encoding="UTF-8"?><svg xmlns="http://www.w3.org/2000/svg" xmlns:xlink="http://www.w3.org/1999/xlink" fill-opacity="1" color-rendering="auto" color-interpolation="auto" text-rendering="auto" stroke="black" stroke-linecap="square" width="761" stroke-miterlimit="10" shape-rendering="auto" stroke-opacity="1" fill="black" stroke-dasharray="none" font-weight="normal" stroke-width="1" height="294" font-family="'Dialog'" font-style="normal" stroke-linejoin="miter" font-size="12px" stroke-dashoffset="0" image-rendering="auto">
  <!--Generated by ySVG 2.5-->
  <defs id="genericDefs"/>
  <g>
    <defs id="defs1">
      <clipPath clipPathUnits="userSpaceOnUse" id="clipPath1">
        <path d="M0 0 L761 0 L761 294 L0 294 L0 0 Z"/>
      </clipPath>
      <clipPath clipPathUnits="userSpaceOnUse" id="clipPath2">
        <path d="M6 -206 L767 -206 L767 88 L6 88 L6 -206 Z"/>
      </clipPath>
    </defs>
    <g fill="white" stroke="white">
      <path d="M11.9219 283 L11.9219 274.4062 L15.1719 274.4062 Q16.0156 274.4062 16.4688 274.4844 Q17.1094 274.5938 17.5312 274.8906 Q17.9688 275.1875 18.2188 275.7188 Q18.4844 276.25 18.4844 276.8906 Q18.4844 277.9844 17.7812 278.75 Q17.0938 279.5 15.2656 279.5 L13.0625 279.5 L13.0625 283 L11.9219 283 ZM13.0625 278.5 L15.2812 278.5 Q16.3906 278.5 16.8438 278.0938 Q17.3125 277.6719 17.3125 276.9219 Q17.3125 276.3906 17.0312 276.0156 Q16.7656 275.625 16.3281 275.5 Q16.0312 275.4219 15.2656 275.4219 L13.0625 275.4219 L13.0625 278.5 ZM19.4102 279.8906 Q19.4102 278.1562 20.3633 277.3281 Q21.1602 276.6406 22.3164 276.6406 Q23.5977 276.6406 24.4102 277.4844 Q25.2383 278.3125 25.2383 279.7969 Q25.2383 281 24.8789 281.6875 Q24.5195 282.375 23.8164 282.7656 Q23.1289 283.1406 22.3164 283.1406 Q21.0195 283.1406 20.207 282.3125 Q19.4102 281.4688 19.4102 279.8906 ZM20.4883 279.8906 Q20.4883 281.0781 21.0039 281.6719 Q21.5352 282.2656 22.3164 282.2656 Q23.1133 282.2656 23.6289 281.6719 Q24.1445 281.0781 24.1445 279.8594 Q24.1445 278.7031 23.6133 278.1094 Q23.0977 277.5156 22.3164 277.5156 Q21.5352 277.5156 21.0039 278.1094 Q20.4883 278.6875 20.4883 279.8906 ZM27.6152 283 L25.709 276.7812 L26.8027 276.7812 L27.7871 280.375 L28.1621 281.7031 Q28.1934 281.6094 28.4902 280.4219 L29.4746 276.7812 L30.5527 276.7812 L31.4902 280.3906 L31.8027 281.5781 L32.1621 280.375 L33.2246 276.7812 L34.2559 276.7812 L32.3027 283 L31.209 283 L30.2246 279.2656 L29.9746 278.2188 L28.7246 283 L27.6152 283 ZM39.3906 281 L40.4844 281.125 Q40.2344 282.0781 39.5312 282.6094 Q38.8281 283.1406 37.75 283.1406 Q36.3906 283.1406 35.5781 282.2969 Q34.7812 281.4531 34.7812 279.9375 Q34.7812 278.375 35.5938 277.5156 Q36.4062 276.6406 37.6875 276.6406 Q38.9375 276.6406 39.7188 277.4844 Q40.5156 278.3281 40.5156 279.875 Q40.5156 279.9688 40.5156 280.1562 L35.875 280.1562 Q35.9375 281.1875 36.4531 281.7344 Q36.9688 282.2656 37.75 282.2656 Q38.3281 282.2656 38.7344 281.9688 Q39.1562 281.6562 39.3906 281 ZM35.9375 279.2969 L39.4062 279.2969 Q39.3438 278.5 39.0156 278.1094 Q38.5 277.5 37.7031 277.5 Q36.9688 277.5 36.4688 277.9844 Q35.9844 278.4688 35.9375 279.2969 ZM41.7988 283 L41.7988 276.7812 L42.752 276.7812 L42.752 277.7188 Q43.1113 277.0625 43.4082 276.8594 Q43.7207 276.6406 44.0957 276.6406 Q44.627 276.6406 45.1738 276.9688 L44.8145 277.9531 Q44.4238 277.7188 44.0488 277.7188 Q43.6895 277.7188 43.4082 277.9375 Q43.1426 278.1406 43.0332 278.5156 Q42.8457 279.0781 42.8457 279.7344 L42.8457 283 L41.7988 283 ZM50.0605 281 L51.1543 281.125 Q50.9043 282.0781 50.2012 282.6094 Q49.498 283.1406 48.4199 283.1406 Q47.0605 283.1406 46.248 282.2969 Q45.4512 281.4531 45.4512 279.9375 Q45.4512 278.375 46.2637 277.5156 Q47.0762 276.6406 48.3574 276.6406 Q49.6074 276.6406 50.3887 277.4844 Q51.1855 278.3281 51.1855 279.875 Q51.1855 279.9688 51.1855 280.1562 L46.5449 280.1562 Q46.6074 281.1875 47.123 281.7344 Q47.6387 282.2656 48.4199 282.2656 Q48.998 282.2656 49.4043 281.9688 Q49.8262 281.6562 50.0605 281 ZM46.6074 279.2969 L50.0762 279.2969 Q50.0137 278.5 49.6855 278.1094 Q49.1699 277.5 48.373 277.5 Q47.6387 277.5 47.1387 277.9844 Q46.6543 278.4688 46.6074 279.2969 ZM56.5156 283 L56.5156 282.2188 Q55.9219 283.1406 54.7812 283.1406 Q54.0312 283.1406 53.4062 282.7344 Q52.7812 282.3125 52.4375 281.5781 Q52.0938 280.8438 52.0938 279.8906 Q52.0938 278.9688 52.4062 278.2031 Q52.7188 277.4375 53.3438 277.0469 Q53.9688 276.6406 54.7344 276.6406 Q55.2969 276.6406 55.7344 276.875 Q56.1719 277.1094 56.4531 277.4844 L56.4531 274.4062 L57.5 274.4062 L57.5 283 L56.5156 283 ZM53.1875 279.8906 Q53.1875 281.0938 53.6875 281.6875 Q54.1875 282.2656 54.875 282.2656 Q55.5625 282.2656 56.0469 281.7031 Q56.5312 281.1406 56.5312 279.9844 Q56.5312 278.7031 56.0312 278.1094 Q55.5469 277.5156 54.8281 277.5156 Q54.125 277.5156 53.6562 278.0938 Q53.1875 278.6562 53.1875 279.8906 ZM63.4609 283 L62.4766 283 L62.4766 274.4062 L63.5391 274.4062 L63.5391 277.4688 Q64.2109 276.6406 65.2422 276.6406 Q65.8203 276.6406 66.3203 276.875 Q66.8359 277.0938 67.1641 277.5156 Q67.5078 277.9375 67.6953 278.5312 Q67.8828 279.125 67.8828 279.7969 Q67.8828 281.3906 67.0859 282.2656 Q66.2891 283.1406 65.1953 283.1406 Q64.0859 283.1406 63.4609 282.2188 L63.4609 283 ZM63.4453 279.8438 Q63.4453 280.9531 63.7578 281.4531 Q64.2578 282.2656 65.1016 282.2656 Q65.7891 282.2656 66.2891 281.6719 Q66.8047 281.0781 66.8047 279.875 Q66.8047 278.6562 66.3203 278.0781 Q65.8359 277.5 65.1484 277.5 Q64.4609 277.5 63.9453 278.1094 Q63.4453 278.7031 63.4453 279.8438 ZM69.1191 285.3906 L68.9941 284.4062 Q69.3379 284.5 69.6035 284.5 Q69.9473 284.5 70.1504 284.375 Q70.3691 284.2656 70.5098 284.0625 Q70.6035 283.8906 70.8379 283.2656 Q70.8535 283.1875 70.9316 283.0156 L68.5566 276.7812 L69.6973 276.7812 L70.9941 280.375 Q71.2441 281.0625 71.4473 281.8281 Q71.6348 281.0938 71.8848 280.4062 L73.2129 276.7812 L74.2598 276.7812 L71.9004 283.1094 Q71.5098 284.125 71.3066 284.5156 Q71.0254 285.0469 70.6504 285.2812 Q70.291 285.5312 69.791 285.5312 Q69.4941 285.5312 69.1191 285.3906 ZM78.4531 285.3906 L78.3281 284.4062 Q78.6719 284.5 78.9375 284.5 Q79.2812 284.5 79.4844 284.375 Q79.7031 284.2656 79.8438 284.0625 Q79.9375 283.8906 80.1719 283.2656 Q80.1875 283.1875 80.2656 283.0156 L77.8906 276.7812 L79.0312 276.7812 L80.3281 280.375 Q80.5781 281.0625 80.7812 281.8281 Q80.9688 281.0938 81.2188 280.4062 L82.5469 276.7812 L83.5938 276.7812 L81.2344 283.1094 Q80.8438 284.125 80.6406 284.5156 Q80.3594 285.0469 79.9844 285.2812 Q79.625 285.5312 79.125 285.5312 Q78.8281 285.5312 78.4531 285.3906 ZM84.6875 283 L84.6875 274.4062 L90.4844 274.4062 L90.4844 275.4219 L85.8281 275.4219 L85.8281 278.0781 L89.8594 278.0781 L89.8594 279.0938 L85.8281 279.0938 L85.8281 283 L84.6875 283 ZM91.8301 275.625 L91.8301 274.4062 L92.8926 274.4062 L92.8926 275.625 L91.8301 275.625 ZM91.8301 283 L91.8301 276.7812 L92.8926 276.7812 L92.8926 283 L91.8301 283 ZM94.4648 283 L94.4648 274.4062 L95.5273 274.4062 L95.5273 283 L94.4648 283 ZM101.4121 281 L102.5059 281.125 Q102.2559 282.0781 101.5527 282.6094 Q100.8496 283.1406 99.7715 283.1406 Q98.4121 283.1406 97.5996 282.2969 Q96.8027 281.4531 96.8027 279.9375 Q96.8027 278.375 97.6152 277.5156 Q98.4277 276.6406 99.709 276.6406 Q100.959 276.6406 101.7402 277.4844 Q102.5371 278.3281 102.5371 279.875 Q102.5371 279.9688 102.5371 280.1562 L97.8965 280.1562 Q97.959 281.1875 98.4746 281.7344 Q98.9902 282.2656 99.7715 282.2656 Q100.3496 282.2656 100.7559 281.9688 Q101.1777 281.6562 101.4121 281 ZM97.959 279.2969 L101.4277 279.2969 Q101.3652 278.5 101.0371 278.1094 Q100.5215 277.5 99.7246 277.5 Q98.9902 277.5 98.4902 277.9844 Q98.0059 278.4688 97.959 279.2969 ZM103.4141 281.1406 L104.4453 280.9844 Q104.5391 281.6094 104.9297 281.9375 Q105.3359 282.2656 106.0703 282.2656 Q106.7891 282.2656 107.1328 281.9844 Q107.4922 281.6875 107.4922 281.2812 Q107.4922 280.9219 107.1797 280.7188 Q106.9609 280.5781 106.1016 280.3594 Q104.9453 280.0625 104.4922 279.8594 Q104.0547 279.6406 103.8203 279.2656 Q103.5859 278.8906 103.5859 278.4219 Q103.5859 278.0156 103.7734 277.6562 Q103.9609 277.2969 104.2891 277.0625 Q104.5391 276.8906 104.9609 276.7656 Q105.3828 276.6406 105.8828 276.6406 Q106.6016 276.6406 107.1484 276.8594 Q107.7109 277.0625 107.9766 277.4219 Q108.2422 277.7812 108.3359 278.375 L107.3047 278.5156 Q107.2422 278.0469 106.8984 277.7812 Q106.5703 277.5 105.9453 277.5 Q105.2266 277.5 104.9141 277.75 Q104.6016 277.9844 104.6016 278.3125 Q104.6016 278.5156 104.7266 278.6719 Q104.8672 278.8438 105.1328 278.9531 Q105.2891 279.0156 106.0703 279.2188 Q107.1953 279.5312 107.6328 279.7188 Q108.0703 279.9062 108.3203 280.2656 Q108.5703 280.625 108.5703 281.1719 Q108.5703 281.7031 108.2578 282.1719 Q107.9609 282.625 107.3828 282.8906 Q106.8047 283.1406 106.0703 283.1406 Q104.8516 283.1406 104.2109 282.6406 Q103.5859 282.125 103.4141 281.1406 Z" stroke="none" clip-path="url(#clipPath1)"/>
    </g>
    <g fill="silver" stroke="silver">
      <path d="M10.9219 282 L10.9219 273.4062 L14.1719 273.4062 Q15.0156 273.4062 15.4688 273.4844 Q16.1094 273.5938 16.5312 273.8906 Q16.9688 274.1875 17.2188 274.7188 Q17.4844 275.25 17.4844 275.8906 Q17.4844 276.9844 16.7812 277.75 Q16.0938 278.5 14.2656 278.5 L12.0625 278.5 L12.0625 282 L10.9219 282 ZM12.0625 277.5 L14.2812 277.5 Q15.3906 277.5 15.8438 277.0938 Q16.3125 276.6719 16.3125 275.9219 Q16.3125 275.3906 16.0312 275.0156 Q15.7656 274.625 15.3281 274.5 Q15.0312 274.4219 14.2656 274.4219 L12.0625 274.4219 L12.0625 277.5 ZM18.4102 278.8906 Q18.4102 277.1562 19.3633 276.3281 Q20.1602 275.6406 21.3164 275.6406 Q22.5977 275.6406 23.4102 276.4844 Q24.2383 277.3125 24.2383 278.7969 Q24.2383 280 23.8789 280.6875 Q23.5195 281.375 22.8164 281.7656 Q22.1289 282.1406 21.3164 282.1406 Q20.0195 282.1406 19.207 281.3125 Q18.4102 280.4688 18.4102 278.8906 ZM19.4883 278.8906 Q19.4883 280.0781 20.0039 280.6719 Q20.5352 281.2656 21.3164 281.2656 Q22.1133 281.2656 22.6289 280.6719 Q23.1445 280.0781 23.1445 278.8594 Q23.1445 277.7031 22.6133 277.1094 Q22.0977 276.5156 21.3164 276.5156 Q20.5352 276.5156 20.0039 277.1094 Q19.4883 277.6875 19.4883 278.8906 ZM26.6152 282 L24.709 275.7812 L25.8027 275.7812 L26.7871 279.375 L27.1621 280.7031 Q27.1934 280.6094 27.4902 279.4219 L28.4746 275.7812 L29.5527 275.7812 L30.4902 279.3906 L30.8027 280.5781 L31.1621 279.375 L32.2246 275.7812 L33.2559 275.7812 L31.3027 282 L30.209 282 L29.2246 278.2656 L28.9746 277.2188 L27.7246 282 L26.6152 282 ZM38.3906 280 L39.4844 280.125 Q39.2344 281.0781 38.5312 281.6094 Q37.8281 282.1406 36.75 282.1406 Q35.3906 282.1406 34.5781 281.2969 Q33.7812 280.4531 33.7812 278.9375 Q33.7812 277.375 34.5938 276.5156 Q35.4062 275.6406 36.6875 275.6406 Q37.9375 275.6406 38.7188 276.4844 Q39.5156 277.3281 39.5156 278.875 Q39.5156 278.9688 39.5156 279.1562 L34.875 279.1562 Q34.9375 280.1875 35.4531 280.7344 Q35.9688 281.2656 36.75 281.2656 Q37.3281 281.2656 37.7344 280.9688 Q38.1562 280.6562 38.3906 280 ZM34.9375 278.2969 L38.4062 278.2969 Q38.3438 277.5 38.0156 277.1094 Q37.5 276.5 36.7031 276.5 Q35.9688 276.5 35.4688 276.9844 Q34.9844 277.4688 34.9375 278.2969 ZM40.7988 282 L40.7988 275.7812 L41.752 275.7812 L41.752 276.7188 Q42.1113 276.0625 42.4082 275.8594 Q42.7207 275.6406 43.0957 275.6406 Q43.627 275.6406 44.1738 275.9688 L43.8145 276.9531 Q43.4238 276.7188 43.0488 276.7188 Q42.6895 276.7188 42.4082 276.9375 Q42.1426 277.1406 42.0332 277.5156 Q41.8457 278.0781 41.8457 278.7344 L41.8457 282 L40.7988 282 ZM49.0605 280 L50.1543 280.125 Q49.9043 281.0781 49.2012 281.6094 Q48.498 282.1406 47.4199 282.1406 Q46.0605 282.1406 45.248 281.2969 Q44.4512 280.4531 44.4512 278.9375 Q44.4512 277.375 45.2637 276.5156 Q46.0762 275.6406 47.3574 275.6406 Q48.6074 275.6406 49.3887 276.4844 Q50.1855 277.3281 50.1855 278.875 Q50.1855 278.9688 50.1855 279.1562 L45.5449 279.1562 Q45.6074 280.1875 46.123 280.7344 Q46.6387 281.2656 47.4199 281.2656 Q47.998 281.2656 48.4043 280.9688 Q48.8262 280.6562 49.0605 280 ZM45.6074 278.2969 L49.0762 278.2969 Q49.0137 277.5 48.6855 277.1094 Q48.1699 276.5 47.373 276.5 Q46.6387 276.5 46.1387 276.9844 Q45.6543 277.4688 45.6074 278.2969 ZM55.5156 282 L55.5156 281.2188 Q54.9219 282.1406 53.7812 282.1406 Q53.0312 282.1406 52.4062 281.7344 Q51.7812 281.3125 51.4375 280.5781 Q51.0938 279.8438 51.0938 278.8906 Q51.0938 277.9688 51.4062 277.2031 Q51.7188 276.4375 52.3438 276.0469 Q52.9688 275.6406 53.7344 275.6406 Q54.2969 275.6406 54.7344 275.875 Q55.1719 276.1094 55.4531 276.4844 L55.4531 273.4062 L56.5 273.4062 L56.5 282 L55.5156 282 ZM52.1875 278.8906 Q52.1875 280.0938 52.6875 280.6875 Q53.1875 281.2656 53.875 281.2656 Q54.5625 281.2656 55.0469 280.7031 Q55.5312 280.1406 55.5312 278.9844 Q55.5312 277.7031 55.0312 277.1094 Q54.5469 276.5156 53.8281 276.5156 Q53.125 276.5156 52.6562 277.0938 Q52.1875 277.6562 52.1875 278.8906 ZM62.4609 282 L61.4766 282 L61.4766 273.4062 L62.5391 273.4062 L62.5391 276.4688 Q63.2109 275.6406 64.2422 275.6406 Q64.8203 275.6406 65.3203 275.875 Q65.8359 276.0938 66.1641 276.5156 Q66.5078 276.9375 66.6953 277.5312 Q66.8828 278.125 66.8828 278.7969 Q66.8828 280.3906 66.0859 281.2656 Q65.2891 282.1406 64.1953 282.1406 Q63.0859 282.1406 62.4609 281.2188 L62.4609 282 ZM62.4453 278.8438 Q62.4453 279.9531 62.7578 280.4531 Q63.2578 281.2656 64.1016 281.2656 Q64.7891 281.2656 65.2891 280.6719 Q65.8047 280.0781 65.8047 278.875 Q65.8047 277.6562 65.3203 277.0781 Q64.8359 276.5 64.1484 276.5 Q63.4609 276.5 62.9453 277.1094 Q62.4453 277.7031 62.4453 278.8438 ZM68.1191 284.3906 L67.9941 283.4062 Q68.3379 283.5 68.6035 283.5 Q68.9473 283.5 69.1504 283.375 Q69.3691 283.2656 69.5098 283.0625 Q69.6035 282.8906 69.8379 282.2656 Q69.8535 282.1875 69.9316 282.0156 L67.5566 275.7812 L68.6973 275.7812 L69.9941 279.375 Q70.2441 280.0625 70.4473 280.8281 Q70.6348 280.0938 70.8848 279.4062 L72.2129 275.7812 L73.2598 275.7812 L70.9004 282.1094 Q70.5098 283.125 70.3066 283.5156 Q70.0254 284.0469 69.6504 284.2812 Q69.291 284.5312 68.791 284.5312 Q68.4941 284.5312 68.1191 284.3906 ZM77.4531 284.3906 L77.3281 283.4062 Q77.6719 283.5 77.9375 283.5 Q78.2812 283.5 78.4844 283.375 Q78.7031 283.2656 78.8438 283.0625 Q78.9375 282.8906 79.1719 282.2656 Q79.1875 282.1875 79.2656 282.0156 L76.8906 275.7812 L78.0312 275.7812 L79.3281 279.375 Q79.5781 280.0625 79.7812 280.8281 Q79.9688 280.0938 80.2188 279.4062 L81.5469 275.7812 L82.5938 275.7812 L80.2344 282.1094 Q79.8438 283.125 79.6406 283.5156 Q79.3594 284.0469 78.9844 284.2812 Q78.625 284.5312 78.125 284.5312 Q77.8281 284.5312 77.4531 284.3906 ZM83.6875 282 L83.6875 273.4062 L89.4844 273.4062 L89.4844 274.4219 L84.8281 274.4219 L84.8281 277.0781 L88.8594 277.0781 L88.8594 278.0938 L84.8281 278.0938 L84.8281 282 L83.6875 282 ZM90.8301 274.625 L90.8301 273.4062 L91.8926 273.4062 L91.8926 274.625 L90.8301 274.625 ZM90.8301 282 L90.8301 275.7812 L91.8926 275.7812 L91.8926 282 L90.8301 282 ZM93.4648 282 L93.4648 273.4062 L94.5273 273.4062 L94.5273 282 L93.4648 282 ZM100.4121 280 L101.5059 280.125 Q101.2559 281.0781 100.5527 281.6094 Q99.8496 282.1406 98.7715 282.1406 Q97.4121 282.1406 96.5996 281.2969 Q95.8027 280.4531 95.8027 278.9375 Q95.8027 277.375 96.6152 276.5156 Q97.4277 275.6406 98.709 275.6406 Q99.959 275.6406 100.7402 276.4844 Q101.5371 277.3281 101.5371 278.875 Q101.5371 278.9688 101.5371 279.1562 L96.8965 279.1562 Q96.959 280.1875 97.4746 280.7344 Q97.9902 281.2656 98.7715 281.2656 Q99.3496 281.2656 99.7559 280.9688 Q100.1777 280.6562 100.4121 280 ZM96.959 278.2969 L100.4277 278.2969 Q100.3652 277.5 100.0371 277.1094 Q99.5215 276.5 98.7246 276.5 Q97.9902 276.5 97.4902 276.9844 Q97.0059 277.4688 96.959 278.2969 ZM102.4141 280.1406 L103.4453 279.9844 Q103.5391 280.6094 103.9297 280.9375 Q104.3359 281.2656 105.0703 281.2656 Q105.7891 281.2656 106.1328 280.9844 Q106.4922 280.6875 106.4922 280.2812 Q106.4922 279.9219 106.1797 279.7188 Q105.9609 279.5781 105.1016 279.3594 Q103.9453 279.0625 103.4922 278.8594 Q103.0547 278.6406 102.8203 278.2656 Q102.5859 277.8906 102.5859 277.4219 Q102.5859 277.0156 102.7734 276.6562 Q102.9609 276.2969 103.2891 276.0625 Q103.5391 275.8906 103.9609 275.7656 Q104.3828 275.6406 104.8828 275.6406 Q105.6016 275.6406 106.1484 275.8594 Q106.7109 276.0625 106.9766 276.4219 Q107.2422 276.7812 107.3359 277.375 L106.3047 277.5156 Q106.2422 277.0469 105.8984 276.7812 Q105.5703 276.5 104.9453 276.5 Q104.2266 276.5 103.9141 276.75 Q103.6016 276.9844 103.6016 277.3125 Q103.6016 277.5156 103.7266 277.6719 Q103.8672 277.8438 104.1328 277.9531 Q104.2891 278.0156 105.0703 278.2188 Q106.1953 278.5312 106.6328 278.7188 Q107.0703 278.9062 107.3203 279.2656 Q107.5703 279.625 107.5703 280.1719 Q107.5703 280.7031 107.2578 281.1719 Q106.9609 281.625 106.3828 281.8906 Q105.8047 282.1406 105.0703 282.1406 Q103.8516 282.1406 103.2109 281.6406 Q102.5859 281.125 102.4141 280.1406 Z" stroke="none" clip-path="url(#clipPath1)"/>
    </g>
    <g fill="rgb(255,255,204)" transform="matrix(1,0,0,1,-6,206)" stroke="rgb(255,255,204)">
      <rect x="426.5" width="122" height="28.5224" y="-13" clip-path="url(#clipPath2)" stroke="none"/>
    </g>
    <g fill="gray" stroke-miterlimit="1.45" transform="matrix(1,0,0,1,-6,206)" stroke-linecap="butt" stroke="gray">
      <rect fill="none" x="426.5" width="122" height="28.5224" y="-13" clip-path="url(#clipPath2)"/>
      <text x="435.5" y="4.6247" clip-path="url(#clipPath2)" fill="black" font-family="'Inter'" stroke="none" xml:space="preserve">instance_list_items</text>
    </g>
    <g fill="rgb(255,255,204)" transform="matrix(1,0,0,1,-6,206)" stroke="rgb(255,255,204)">
      <rect x="16" width="63" height="28.5224" y="-195.0028" clip-path="url(#clipPath2)" stroke="none"/>
    </g>
    <g fill="gray" stroke-miterlimit="1.45" transform="matrix(1,0,0,1,-6,206)" stroke-linecap="butt" stroke="gray">
      <rect fill="none" x="16" width="63" height="28.5224" y="-195.0028" clip-path="url(#clipPath2)"/>
      <text x="25" y="-177.3781" clip-path="url(#clipPath2)" fill="black" font-family="'Inter'" stroke="none" xml:space="preserve">projects</text>
    </g>
    <g fill="rgb(255,255,204)" transform="matrix(1,0,0,1,-6,206)" stroke="rgb(255,255,204)">
      <rect x="134.5" width="72" height="28.5224" y="43.8488" clip-path="url(#clipPath2)" stroke="none"/>
    </g>
    <g fill="gray" stroke-miterlimit="1.45" transform="matrix(1,0,0,1,-6,206)" stroke-linecap="butt" stroke="gray">
      <rect fill="none" x="134.5" width="72" height="28.5224" y="43.8488" clip-path="url(#clipPath2)"/>
      <text x="143.5" y="61.4735" clip-path="url(#clipPath2)" fill="black" font-family="'Inter'" stroke="none" xml:space="preserve">instances</text>
    </g>
    <g fill="rgb(255,255,204)" transform="matrix(1,0,0,1,-6,206)" stroke="rgb(255,255,204)">
      <rect x="267" width="101" height="28.5224" y="-12.6735" clip-path="url(#clipPath2)" stroke="none"/>
    </g>
    <g fill="gray" stroke-miterlimit="1.45" transform="matrix(1,0,0,1,-6,206)" stroke-linecap="butt" stroke="gray">
      <rect fill="none" x="267" width="101" height="28.5224" y="-12.6735" clip-path="url(#clipPath2)"/>
      <text x="276" y="4.9512" clip-path="url(#clipPath2)" fill="black" font-family="'Inter'" stroke="none" xml:space="preserve">instance_fields</text>
    </g>
    <g fill="rgb(255,255,204)" transform="matrix(1,0,0,1,-6,206)" stroke="rgb(255,255,204)">
      <rect x="137" width="49" height="28.5224" y="-195.0028" clip-path="url(#clipPath2)" stroke="none"/>
    </g>
    <g fill="gray" stroke-miterlimit="1.45" transform="matrix(1,0,0,1,-6,206)" stroke-linecap="butt" stroke="gray">
      <rect fill="none" x="137" width="49" height="28.5224" y="-195.0028" clip-path="url(#clipPath2)"/>
      <text x="146" y="-177.3781" clip-path="url(#clipPath2)" fill="black" font-family="'Inter'" stroke="none" xml:space="preserve">types</text>
    </g>
    <g fill="rgb(255,255,204)" transform="matrix(1,0,0,1,-6,206)" stroke="rgb(255,255,204)">
      <rect x="266" width="99" height="28.5224" y="-195.6475" clip-path="url(#clipPath2)" stroke="none"/>
    </g>
    <g fill="gray" stroke-miterlimit="1.45" transform="matrix(1,0,0,1,-6,206)" stroke-linecap="butt" stroke="gray">
      <rect fill="none" x="266" width="99" height="28.5224" y="-195.6475" clip-path="url(#clipPath2)"/>
      <text x="275" y="-178.0228" clip-path="url(#clipPath2)" fill="black" font-family="'Inter'" stroke="none" xml:space="preserve">type_list_items</text>
    </g>
    <g fill="rgb(255,255,204)" transform="matrix(1,0,0,1,-6,206)" stroke="rgb(255,255,204)">
      <rect x="425.5" width="98" height="28.5224" y="-133.1065" clip-path="url(#clipPath2)" stroke="none"/>
    </g>
    <g fill="gray" stroke-miterlimit="1.45" transform="matrix(1,0,0,1,-6,206)" stroke-linecap="butt" stroke="gray">
      <rect fill="none" x="425.5" width="98" height="28.5224" y="-133.1065" clip-path="url(#clipPath2)"/>
      <text x="434.5" y="-115.4818" clip-path="url(#clipPath2)" fill="black" font-family="'Inter'" stroke="none" xml:space="preserve">field_list_items</text>
    </g>
    <g fill="rgb(255,255,204)" transform="matrix(1,0,0,1,-6,206)" stroke="rgb(255,255,204)">
      <rect x="270.5" width="48" height="28.5224" y="-136.0864" clip-path="url(#clipPath2)" stroke="none"/>
    </g>
    <g fill="gray" stroke-miterlimit="1.45" transform="matrix(1,0,0,1,-6,206)" stroke-linecap="butt" stroke="gray">
      <rect fill="none" x="270.5" width="48" height="28.5224" y="-136.0864" clip-path="url(#clipPath2)"/>
      <text x="279.5" y="-118.4617" clip-path="url(#clipPath2)" fill="black" font-family="'Inter'" stroke="none" xml:space="preserve">fields</text>
    </g>
    <g fill="rgb(255,255,204)" transform="matrix(1,0,0,1,-6,206)" stroke="rgb(255,255,204)">
      <rect x="265.5" width="76" height="28.5224" y="-74.6288" clip-path="url(#clipPath2)" stroke="none"/>
    </g>
    <g fill="gray" stroke-miterlimit="1.45" transform="matrix(1,0,0,1,-6,206)" stroke-linecap="butt" stroke="gray">
      <rect fill="none" x="265.5" width="76" height="28.5224" y="-74.6288" clip-path="url(#clipPath2)"/>
      <text x="274.5" y="-57.0041" clip-path="url(#clipPath2)" fill="black" font-family="'Inter'" stroke="none" xml:space="preserve">node_data</text>
    </g>
    <g fill="rgb(255,255,204)" transform="matrix(1,0,0,1,-6,206)" stroke="rgb(255,255,204)">
      <rect x="134.5" width="52" height="28.5224" y="-73.9893" clip-path="url(#clipPath2)" stroke="none"/>
    </g>
    <g fill="gray" stroke-miterlimit="1.45" transform="matrix(1,0,0,1,-6,206)" stroke-linecap="butt" stroke="gray">
      <rect fill="none" x="134.5" width="52" height="28.5224" y="-73.9893" clip-path="url(#clipPath2)"/>
      <text x="143.5" y="-56.3646" clip-path="url(#clipPath2)" fill="black" font-family="'Inter'" stroke="none" xml:space="preserve">nodes</text>
    </g>
    <g fill="rgb(255,255,204)" transform="matrix(1,0,0,1,-6,206)" stroke="rgb(255,255,204)">
      <rect x="265.5" width="96" height="28.5224" y="48.7182" clip-path="url(#clipPath2)" stroke="none"/>
    </g>
    <g fill="gray" stroke-miterlimit="1.45" transform="matrix(1,0,0,1,-6,206)" stroke-linecap="butt" stroke="gray">
      <rect fill="none" x="265.5" width="96" height="28.5224" y="48.7182" clip-path="url(#clipPath2)"/>
      <text x="274.5" y="66.3429" clip-path="url(#clipPath2)" fill="black" font-family="'Inter'" stroke="none" xml:space="preserve">instance_data</text>
    </g>
    <g fill="rgb(255,255,204)" transform="matrix(1,0,0,1,-6,206)" stroke="rgb(255,255,204)">
      <rect x="610" width="147" height="28.5224" y="-13.6194" clip-path="url(#clipPath2)" stroke="none"/>
    </g>
    <g fill="gray" stroke-miterlimit="1.45" transform="matrix(1,0,0,1,-6,206)" stroke-linecap="butt" stroke="gray">
      <rect fill="none" x="610" width="147" height="28.5224" y="-13.6194" clip-path="url(#clipPath2)"/>
      <text x="619" y="4.0053" clip-path="url(#clipPath2)" fill="black" font-family="'Inter'" stroke="none" xml:space="preserve">instance_sub_list_items</text>
    </g>
    <g fill="rgb(255,255,204)" transform="matrix(1,0,0,1,-6,206)" stroke="rgb(255,255,204)">
      <rect x="610" width="123" height="28.5224" y="-133.487" clip-path="url(#clipPath2)" stroke="none"/>
    </g>
    <g fill="gray" stroke-miterlimit="1.45" transform="matrix(1,0,0,1,-6,206)" stroke-linecap="butt" stroke="gray">
      <rect fill="none" x="610" width="123" height="28.5224" y="-133.487" clip-path="url(#clipPath2)"/>
      <text x="619" y="-115.8623" clip-path="url(#clipPath2)" fill="black" font-family="'Inter'" stroke="none" xml:space="preserve">field_sub_list_items</text>
    </g>
    <g fill="gray" stroke-miterlimit="1.45" transform="matrix(1,0,0,1,-6,206)" stroke-linecap="butt" stroke="gray">
      <path fill="none" d="M136.9717 -180 L87.0283 -180" clip-path="url(#clipPath2)"/>
    </g>
    <g fill="gray" stroke-miterlimit="1.45" transform="matrix(1,0,0,1,-6,206)" stroke-linecap="butt" stroke="gray">
      <path d="M79.0283 -180 L91.0283 -175 L88.0283 -180 L91.0283 -185 Z" stroke="none" clip-path="url(#clipPath2)"/>
      <path fill="none" d="M265.9609 -180 L194.039 -180" clip-path="url(#clipPath2)"/>
      <path d="M186.039 -180 L198.039 -175 L195.039 -180 L198.039 -185 Z" clip-path="url(#clipPath2)" stroke="none"/>
      <path fill="none" d="M425.4739 -120 L326.5261 -120" clip-path="url(#clipPath2)"/>
      <path d="M318.5261 -120 L330.5261 -115 L327.5261 -120 L330.5261 -125 Z" clip-path="url(#clipPath2)" stroke="none"/>
      <path fill="none" d="M270.473 -120 L160 -120 L160 -158.4351" clip-path="url(#clipPath2)"/>
      <path d="M160 -166.4351 L155 -154.4351 L160 -157.4351 L165 -154.4351 Z" clip-path="url(#clipPath2)" stroke="none"/>
      <path fill="none" d="M300 -74.661 L300 -99.5319" clip-path="url(#clipPath2)"/>
      <path d="M300 -107.5319 L295 -95.5319 L300 -98.5319 L305 -95.5319 Z" clip-path="url(#clipPath2)" stroke="none"/>
      <path fill="none" d="M265.4614 -60 L194.5386 -60" clip-path="url(#clipPath2)"/>
      <path d="M186.5386 -60 L198.5386 -55 L195.5386 -60 L198.5386 -65 Z" clip-path="url(#clipPath2)" stroke="none"/>
      <path fill="none" d="M150 -74.0345 L150 -158.4353" clip-path="url(#clipPath2)"/>
      <path d="M150 -166.4353 L145 -154.4353 L150 -157.4353 L155 -154.4353 Z" clip-path="url(#clipPath2)" stroke="none"/>
      <path fill="none" d="M160 43.8052 L160 -37.4234" clip-path="url(#clipPath2)"/>
      <path d="M160 -45.4234 L155 -33.4234 L160 -36.4234 L165 -33.4234 Z" clip-path="url(#clipPath2)" stroke="none"/>
      <path fill="none" d="M266.9526 0 L170 0 L170 -37.4226" clip-path="url(#clipPath2)"/>
      <path d="M170 -45.4226 L165 -33.4226 L170 -36.4226 L175 -33.4226 Z" clip-path="url(#clipPath2)" stroke="none"/>
      <path fill="none" d="M426.4714 0 L376.0286 0" clip-path="url(#clipPath2)"/>
      <path d="M368.0286 0 L380.0286 5 L377.0286 0 L380.0286 -5 Z" clip-path="url(#clipPath2)" stroke="none"/>
      <path fill="none" d="M320 48.6861 L320 23.8809" clip-path="url(#clipPath2)"/>
      <path d="M320 15.8809 L315 27.8809 L320 24.8809 L325 27.8809 Z" clip-path="url(#clipPath2)" stroke="none"/>
      <path fill="none" d="M265.4712 60 L214.5288 60" clip-path="url(#clipPath2)"/>
      <path d="M206.5288 60 L218.5288 65 L215.5288 60 L218.5288 55 Z" clip-path="url(#clipPath2)" stroke="none"/>
      <path fill="none" d="M609.97 0 L556.53 0" clip-path="url(#clipPath2)"/>
      <path d="M548.53 0 L560.53 5 L557.53 0 L560.53 -5 Z" clip-path="url(#clipPath2)" stroke="none"/>
      <path fill="none" d="M609.9578 -120 L531.5422 -120" clip-path="url(#clipPath2)"/>
      <path d="M523.5422 -120 L535.5422 -115 L532.5422 -120 L535.5422 -125 Z" clip-path="url(#clipPath2)" stroke="none"/>
    </g>
  </g>
</svg>
